[Header]
FileType HTR
DataType HTRS
FileVersion 1
NumSegments 64
NumFrames 3
DataFrameRate 30
EulerRotationOrder ZYX
CalibrationUnits mm
RotationUnits Degrees
GlobalAxisofGravity Y
BoneLengthAxis Y
ScaleFactor 1.0
[SegmentNames&Hierarchy]
Hips	GLOBAL
Spine	Hips
Spine1	Spine
Spine2	Spine1
Neck	Spine2
Head	Neck
LeftEye	Head
RightEye	Head
LeftShoulder	Spine2
LeftArm	LeftShoulder
LeftForeArm	LeftArm
LeftHand	LeftForeArm
LeftHandThumb1	LeftHand
LeftHandThumb2	LeftHandThumb1
LeftHandThumb3	LeftHandThumb2
LeftHandThumb4	LeftHandThumb3
LeftHandIndex1	LeftHand
LeftHandIndex2	LeftHandIndex1
LeftHandIndex3	LeftHandIndex2
LeftHandIndex4	LeftHandIndex3
LeftHandMiddle1	LeftHand
LeftHandMiddle2	LeftHandMiddle1
LeftHandMiddle3	LeftHandMiddle2
LeftHandMiddle4	LeftHandMiddle3
LeftHandRing1	LeftHand
LeftHandRing2	LeftHandRing1
LeftHandRing3	LeftHandRing2
LeftHandRing4	LeftHandRing3
LeftHandPinky1	LeftHand
LeftHandPinky2	LeftHandPinky1
LeftHandPinky3	LeftHandPinky2
LeftHandPinky4	LeftHandPinky3
RightShoulder	Spine2
RightArm	RightShoulder
RightForeArm	RightArm
RightHand	RightForeArm
RightHandPinky1	RightHand
RightHandPinky2	RightHandPinky1
RightHandPinky3	RightHandPinky2
RightHandPinky4	RightHandPinky3
RightHandRing1	RightHand
RightHandRing2	RightHandRing1
RightHandRing3	RightHandRing2
RightHandRing4	RightHandRing3
RightHandMiddle1	RightHand
RightHandMiddle2	RightHandMiddle1
RightHandMiddle3	RightHandMiddle2
RightHandMiddle4	RightHandMiddle3
RightHandIndex1	RightHand
RightHandIndex2	RightHandIndex1
RightHandIndex3	RightHandIndex2
RightHandIndex4	RightHandIndex3
RightHandThumb1	RightHand
RightHandThumb2	RightHandThumb1
RightHandThumb3	RightHandThumb2
RightHandThumb4	RightHandThumb3
LeftUpLeg	Hips
LeftLeg	LeftUpLeg
LeftFoot	LeftLeg
LeftToeBase	LeftFoot
RightUpLeg	Hips
RightLeg	RightUpLeg
RightFoot	RightLeg
RightToeBase	RightFoot
[BasePosition]
Hips	0	0	0	0	0	0	1
Spine	0	0	0	0	0	0	1
Spine1	0	0	0	0	0	0	1
Spine2	0	0	0	0	0	0	1
Neck	0	0	0	0	0	0	1
Head	0	0	0	0	0	0	1
LeftEye	0	0	0	0	0	0	1
RightEye	0	0	0	0	0	0	1
LeftShoulder	0	0	0	0	0	0	1
LeftArm	0	0	0	0	0	0	1
LeftForeArm	0	0	0	0	0	0	1
LeftHand	0	0	0	0	0	0	1
LeftHandThumb1	0	0	0	0	0	0	1
LeftHandThumb2	0	0	0	0	0	0	1
LeftHandThumb3	0	0	0	0	0	0	1
LeftHandThumb4	0	0	0	0	0	0	1
LeftHandIndex1	0	0	0	0	0	0	1
LeftHandIndex2	0	0	0	0	0	0	1
LeftHandIndex3	0	0	0	0	0	0	1
LeftHandIndex4	0	0	0	0	0	0	1
LeftHandMiddle1	0	0	0	0	0	0	1
LeftHandMiddle2	0	0	0	0	0	0	1
LeftHandMiddle3	0	0	0	0	0	0	1
LeftHandMiddle4	0	0	0	0	0	0	1
LeftHandRing1	0	0	0	0	0	0	1
LeftHandRing2	0	0	0	0	0	0	1
LeftHandRing3	0	0	0	0	0	0	1
LeftHandRing4	0	0	0	0	0	0	1
LeftHandPinky1	0	0	0	0	0	0	1
LeftHandPinky2	0	0	0	0	0	0	1
LeftHandPinky3	0	0	0	0	0	0	1
LeftHandPinky4	0	0	0	0	0	0	1
RightShoulder	0	0	0	0	0	0	1
RightArm	0	0	0	0	0	0	1
RightForeArm	0	0	0	0	0	0	1
RightHand	0	0	0	0	0	0	1
RightHandPinky1	0	0	0	0	0	0	1
RightHandPinky2	0	0	0	0	0	0	1
RightHandPinky3	0	0	0	0	0	0	1
RightHandPinky4	0	0	0	0	0	0	1
RightHandRing1	0	0	0	0	0	0	1
RightHandRing2	0	0	0	0	0	0	1
RightHandRing3	0	0	0	0	0	0	1
RightHandRing4	0	0	0	0	0	0	1
RightHandMiddle1	0	0	0	0	0	0	1
RightHandMiddle2	0	0	0	0	0	0	1
RightHandMiddle3	0	0	0	0	0	0	1
RightHandMiddle4	0	0	0	0	0	0	1
RightHandIndex1	0	0	0	0	0	0	1
RightHandIndex2	0	0	0	0	0	0	1
RightHandIndex3	0	0	0	0	0	0	1
RightHandIndex4	0	0	0	0	0	0	1
RightHandThumb1	0	0	0	0	0	0	1
RightHandThumb2	0	0	0	0	0	0	1
RightHandThumb3	0	0	0	0	0	0	1
RightHandThumb4	0	0	0	0	0	0	1
LeftUpLeg	0	0	0	0	0	0	1
LeftLeg	0	0	0	0	0	0	1
LeftFoot	0	0	0	0	0	0	1
LeftToeBase	0	0	0	0	0	0	1
RightUpLeg	0	0	0	0	0	0	1
RightLeg	0	0	0	0	0	0	1
RightFoot	0	0	0	0	0	0	1
RightToeBase	0	0	0	0	0	0	1
[Hips]
27	-3.164608479	956.5766602	1492.869385	1.586670995	4.914451122	0.9031444192	1.0
28	-8.905457497	963.5438232	1543.18103	1.720471263	4.30104351	0.7274918556	1.0
29	-10.90423775	974.7284546	1589.582031	1.887938142	3.728758335	0.4675932527	1.0
[Spine]
27	0	101.8159943	1.315000057	3.874924898	-6.793694973	-1.026927233	1.0
28	0	101.8159943	1.315000057	4.215372086	-5.4085536	-1.308989048	1.0
29	0	101.8159943	1.315000057	4.658895493	-3.803167105	-1.3042413	1.0
[Spine1]
27	0	100.8349991	-10.00800037	2.014863729	-7.187544823	2.577017069	1.0
28	0	100.8349991	-10.00800037	2.079847813	-6.652977943	2.446154594	1.0
29	0	100.8349991	-10.00800037	2.272653341	-5.751190186	2.203615904	1.0
[Spine2]
27	0	91	-13.73399925	1.827477694	-7.159852982	2.776006937	1.0
28	0	91	-13.73399925	1.924057007	-6.630840302	2.63402462	1.0
29	0	91	-13.73399925	2.160297632	-5.728157043	2.388338804	1.0
[Neck]
27	0	166.7169952	-25.16200066	0.09296066314	4.74341011	0.6995580196	1.0
28	0	166.7169952	-25.16200066	-0.008774570189	4.191508293	1.230053186	1.0
29	0	166.7169952	-25.16200066	-0.1696186513	3.53919363	1.344349265	1.0
[Head]
27	0	96.17900085	16.84999847	-4.956782818	12.758358	-5.800243378	1.0
28	0	96.17900085	16.84999847	-4.753082275	11.60565853	-5.019668579	1.0
29	0	96.17900085	16.84999847	-4.814030647	9.599119186	-4.003196239	1.0
[LeftEye]
27	30.6760006	64.09500122	92.83599854	0	0	0	1.0
28	30.6760006	64.09500122	92.83599854	0	0	0	1.0
29	30.6760006	64.09500122	92.83599854	0	0	0	1.0
[RightEye]
27	-30.6760006	64.09500122	92.83499908	0	0	0	1.0
28	-30.6760006	64.09500122	92.83499908	0	0	0	1.0
29	-30.6760006	64.09500122	92.83499908	0	0	0	1.0
[LeftShoulder]
27	45.70400238	109.4599991	-26.28000069	2.584204674	-9.173763275	-13.48946476	1.0
28	45.70400238	109.4599991	-26.28000069	2.581143379	-9.166773796	-13.4887104	1.0
29	45.70400238	109.4599991	-26.28000069	2.637068272	-9.283551216	-13.7569437	1.0
[LeftArm]
27	105.923996	-5.24600029	-22.32099915	21.02077866	-16.36896515	-50.02651215	1.0
28	105.923996	-5.24600029	-22.32099915	22.61768341	-15.06161976	-52.71087646	1.0
29	105.923996	-5.24600029	-22.32099915	24.7563343	-14.39573765	-54.86912155	1.0
[LeftForeArm]
27	278.414978	-0.0009999999311	0	4.221811196e-06	-46.66245651	-0.0002112313668	1.0
28	278.414978	-0.0009999999311	0	4.959968464e-06	-37.6401825	-0.0002083508298	1.0
29	278.414978	-0.0009999999311	0	5.934275123e-06	-28.14109039	-0.0002157925483	1.0
[LeftHand]
27	283.2879944	0	0	-1.207360148	-1.286964297	20.19372368	1.0
28	283.2879944	0	0	-3.325661659	-1.202637315	17.73677635	1.0
29	283.2879944	0	0	-3.634239674	-0.9443763494	11.05803108	1.0
[LeftHandThumb1]
27	24.6609993	-15.75	26.8239994	5.839803696	2.504242897	11.148386	1.0
28	24.6609993	-15.75	26.8239994	5.839803696	2.504242897	11.148386	1.0
29	24.6609993	-15.75	26.8239994	5.839803696	2.504242897	11.148386	1.0
[LeftHandThumb2]
27	32.29800034	-18.64699936	18.64699936	7.193305016	13.5233717	7.331692696	1.0
28	32.29800034	-18.64699936	18.64699936	7.441712379	12.71148586	7.086527348	1.0
29	32.29800034	-18.64699936	18.64699936	7.331936836	11.80510235	6.81820488	1.0
[LeftHandThumb3]
27	26.52600098	-15.31499958	15.31499958	-0.7734803557	-7.382824898	21.77817154	1.0
28	26.52600098	-15.31499958	15.31499958	-1.129685879	-8.25709343	21.81615257	1.0
29	26.52600098	-15.31499958	15.31499958	-1.493446112	-9.170235634	21.79131126	1.0
[LeftHandThumb4]
27	19.54599953	-11.28499985	11.28499985	0	0	0	1.0
28	19.54599953	-11.28499985	11.28499985	0	0	0	1.0
29	19.54599953	-11.28499985	11.28499985	0	0	0	1.0
[LeftHandIndex1]
27	91.09299469	-5.170999527	22.60099792	-0.6946268082	-1.413951278	-21.16335678	1.0
28	91.09299469	-5.170999527	22.60099792	-0.7136113644	-1.32608664	-21.58326149	1.0
29	91.09299469	-5.170999527	22.60099792	-0.7842871547	-1.355063677	-22.37371063	1.0
[LeftHandIndex2]
27	36.76399994	0	0	-0.1972075701	1.505274177	-14.92635822	1.0
28	36.76399994	0	0	-0.197177887	1.50511837	-14.92474937	1.0
29	36.76399994	0	0	-0.1979390532	1.507994056	-14.95384026	1.0
[LeftHandIndex3]
27	28.83100128	0	0	-0.1972083449	1.50528717	-14.92636585	1.0
28	28.83100128	0	0	-0.1971601099	1.505125165	-14.92473221	1.0
29	28.83100128	0	0	-0.1979209036	1.507990122	-14.95382881	1.0
[LeftHandIndex4]
27	23.92700005	0	0	0	0	0	1.0
28	23.92700005	0	0	0	0	0	1.0
29	23.92700005	0	0	0	0	0	1.0
[LeftHandMiddle1]
27	95.33399963	0	0	-1.823325157	4.438929081	-29.06023979	1.0
28	95.33399963	0	0	-1.845591187	4.806648731	-29.3202877	1.0
29	95.33399963	0	0	-1.905606389	5.151285172	-30.01225662	1.0
[LeftHandMiddle2]
27	36.98199844	0	0	-0.1235156506	1.195164561	-11.79974079	1.0
28	36.98199844	0	0	-0.1246391013	1.200511694	-11.85334969	1.0
29	36.98199844	0	0	-0.1254785657	1.204519033	-11.89358997	1.0
[LeftHandMiddle3]
27	29.50900078	0	0	-0.1684623361	1.393080115	-13.79034615	1.0
28	29.50900078	0	0	-0.1697766334	1.398392677	-13.84394836	1.0
29	29.50900078	0	0	-0.1707649976	1.402377009	-13.88416672	1.0
[LeftHandMiddle4]
27	28.3390007	0	0	0	0	0	1.0
28	28.3390007	0	0	0	0	0	1.0
29	28.3390007	0	0	0	0	0	1.0
[LeftHandRing1]
27	91.04499817	-0.4390000105	-18.65100098	-1.917663336	6.959160805	-30.17581749	1.0
28	91.04499817	-0.4390000105	-18.65100098	-1.959965587	7.090752125	-30.66187286	1.0
29	91.04499817	-0.4390000105	-18.65100098	-2.026819944	7.256171703	-31.42255402	1.0
[LeftHandRing2]
27	31.54000092	0	0	-0.3284032345	1.93121922	-19.29961777	1.0
28	31.54000092	0	0	-0.326090306	1.924625278	-19.23109436	1.0
29	31.54000092	0	0	-0.3262085319	1.924946904	-19.23455238	1.0
[LeftHandRing3]
27	29.37700081	0	0	-0.3987095952	2.121249199	-21.28829956	1.0
28	29.37700081	0	0	-0.3961615562	2.114710093	-21.21940041	1.0
29	29.37700081	0	0	-0.3962783813	2.114997864	-21.22243118	1.0
[LeftHandRing4]
27	26.47500038	0	0	0	0	0	1.0
28	26.47500038	0	0	0	0	0	1.0
29	26.47500038	0	0	0	0	0	1.0
[LeftHandPinky1]
27	80.77799988	-4.887000084	-38.06099701	-2.365139484	4.640608788	-35.02480316	1.0
28	80.77799988	-4.887000084	-38.06099701	-2.434116125	5.586119175	-35.25715637	1.0
29	80.77799988	-4.887000084	-38.06099701	-2.520275593	6.528225899	-35.50437164	1.0
[LeftHandPinky2]
27	36	0	0	-0.2623519301	1.731207132	-17.23301125	1.0
28	36	0	0	-0.2628493309	1.732812047	-17.24951935	1.0
29	36	0	0	-0.2652129233	1.740424395	-17.32761192	1.0
[LeftHandPinky3]
27	21.14200211	0	0	-0.2623387277	1.731172085	-17.23265076	1.0
28	21.14200211	0	0	-0.2628529966	1.732807279	-17.24945259	1.0
29	21.14200211	0	0	-0.2652226985	1.740408421	-17.32761192	1.0
[LeftHandPinky4]
27	19.75699997	0	0	0	0	0	1.0
28	19.75699997	0	0	0	0	0	1.0
29	19.75699997	0	0	0	0	0	1.0
[RightShoulder]
27	-45.70000076	109.4620056	-26.28000069	1.382180214	2.595485687	16.02350616	1.0
28	-45.70000076	109.4620056	-26.28000069	1.433766365	2.61062479	16.66552544	1.0
29	-45.70000076	109.4620056	-26.28000069	1.467825651	2.676334143	16.88097	1.0
[RightArm]
27	-105.9280014	-5.248000145	-22.32099915	22.16334915	-1.321681857	54.53564072	1.0
28	-105.9280014	-5.248000145	-22.32099915	21.79289436	2.106135368	53.83337784	1.0
29	-105.9280014	-5.248000145	-22.32099915	20.78264999	5.660915852	53.74250412	1.0
[RightForeArm]
27	-278.414978	0	0	-6.242857467e-07	10.59766293	-1.260323097e-05	1.0
28	-278.414978	0	0	2.358984148e-06	12.51939487	9.185697309e-06	1.0
29	-278.414978	0	0	3.566632813e-06	14.68136978	1.71497777e-05	1.0
[RightHand]
27	-283.2879944	0	0.0009999999311	4.731425285	-12.92960548	22.54831123	1.0
28	-283.2879944	0	0.0009999999311	3.042879343	-11.71676159	19.70995331	1.0
29	-283.2879944	0	0.0009999999311	-0.5205934644	-9.186192513	15.74384785	1.0
[RightHandPinky1]
27	-80.76699829	-4.885000229	-38.06000137	-2.376886368	-0.5681988597	30.44872475	1.0
28	-80.76699829	-4.885000229	-38.06000137	-2.523111105	-0.1498245448	31.4008255	1.0
29	-80.76699829	-4.885000229	-38.06000137	-2.440697908	-0.609177947	31.31560326	1.0
[RightHandPinky2]
27	-36	0	0.0009999999311	-0.5669426918	-2.221994638	28.64334488	1.0
28	-36	0	0.0009999999311	-0.5732098222	-2.233458519	28.80485535	1.0
29	-36	0	0.0009999999311	-0.5719228983	-2.231092215	28.77158165	1.0
[RightHandPinky3]
27	-21.14200211	0	0	-0.1766491085	-1.268014669	15.85993481	1.0
28	-21.14200211	0	0	-0.1799670607	-1.279703498	16.01005745	1.0
29	-21.14200211	0	0	-0.1794871241	-1.278008819	15.98829842	1.0
[RightHandPinky4]
27	-19.75699997	0	0	0	0	0	1.0
28	-19.75699997	0	0	0	0	0	1.0
29	-19.75699997	0	0	0	0	0	1.0
[RightHandRing1]
27	-91.03599548	-0.4390000105	-18.65100098	-1.479323864	-1.742714763	26.78331184	1.0
28	-91.03599548	-0.4390000105	-18.65100098	-1.578358054	-1.392699003	28.16116905	1.0
29	-91.03599548	-0.4390000105	-18.65100098	-1.572596312	-1.458161473	28.07935524	1.0
[RightHandRing2]
27	-31.54000092	0	0	-1.482034683	-3.397113085	47.12965775	1.0
28	-31.54000092	0	0	-1.489294529	-3.40382123	47.25206375	1.0
29	-31.54000092	0	0	-1.494160175	-3.408312559	47.33408737	1.0
[RightHandRing3]
27	-29.37700081	0	0	-0.3636869788	-1.800527573	22.83758545	1.0
28	-29.37700081	0	0	-0.3674712181	-1.809471965	22.95761108	1.0
29	-29.37700081	0	0	-0.3700680137	-1.815593123	23.03975487	1.0
[RightHandRing4]
27	-26.47500038	0	0	0	0	0	1.0
28	-26.47500038	0	0	0	0	0	1.0
29	-26.47500038	0	0	0	0	0	1.0
[RightHandMiddle1]
27	-95.32500458	0	0	-1.195120215	-0.6494743824	22.78310585	1.0
28	-95.32500458	0	0	-1.309726477	-0.3942040205	24.45945358	1.0
29	-95.32500458	0	0	-1.328564525	-0.1970778704	24.74082565	1.0
[RightHandMiddle2]
27	-36.98199844	0	0	-0.8557529449	-2.683892727	35.36408615	1.0
28	-36.98199844	0	0	-0.8620247245	-2.692707062	35.4978714	1.0
29	-36.98199844	0	0	-0.8620389104	-2.692722082	35.49811935	1.0
[RightHandMiddle3]
27	-29.50900078	0	0	-0.2959723175	-1.632501841	20.57575035	1.0
28	-29.50900078	0	0	-0.2997579873	-1.642555952	20.70839882	1.0
29	-29.50900078	0	0	-0.2997503877	-1.642526746	20.70802689	1.0
[RightHandMiddle4]
27	-28.3390007	0	0.0009999999311	0	0	0	1.0
28	-28.3390007	0	0.0009999999311	0	0	0	1.0
29	-28.3390007	0	0.0009999999311	0	0	0	1.0
[RightHandIndex1]
27	-91.08300018	-5.167999744	22.60099792	-1.262992382	4.254419804	24.89068604	1.0
28	-91.08300018	-5.167999744	22.60099792	-1.425114393	4.726787567	26.49146652	1.0
29	-91.08300018	-5.167999744	22.60099792	-1.398544908	4.890498161	26.16100311	1.0
[RightHandIndex2]
27	-36.76399994	0	0	-0.389123112	-1.859727144	23.63371277	1.0
28	-36.76399994	0	0	-0.3929646015	-1.868469238	23.75177765	1.0
29	-36.76399994	0	0	-0.3949068785	-1.872880816	23.81138992	1.0
[RightHandIndex3]
27	-28.83100128	0	0	-0.0758055672	-0.8353367448	10.37081718	1.0
28	-28.83100128	0	0	-0.07759319991	-0.8450208902	10.4924202	1.0
29	-28.83100128	0	0	-0.07851341367	-0.8499934077	10.55483246	1.0
[RightHandIndex4]
27	-23.92700005	0	0	0	0	0	1.0
28	-23.92700005	0	0	0	0	0	1.0
29	-23.92700005	0	0	0	0	0	1.0
[RightHandThumb1]
27	-24.64799881	-15.72700024	26.82600021	12.78110313	-2.167885065	-4.410644054	1.0
28	-24.64799881	-15.72700024	26.82600021	12.78110313	-2.167885065	-4.410644054	1.0
29	-24.64799881	-15.72700024	26.82600021	12.78110313	-2.167885065	-4.410644054	1.0
[RightHandThumb2]
27	-32.29800034	-18.64699936	18.64699936	11.47780323	-18.32665443	-9.128340721	1.0
28	-32.29800034	-18.64699936	18.64699936	10.89498997	-18.83768082	-8.960096359	1.0
29	-32.29800034	-18.64699936	18.64699936	10.0384903	-18.45269966	-9.035719872	1.0
[RightHandThumb3]
27	-26.52600098	-15.31399918	15.31399918	-15.58433437	-4.61400032	-11.31921959	1.0
28	-26.52600098	-15.31399918	15.31399918	-15.61212158	-4.548245907	-11.33998775	1.0
29	-26.52600098	-15.31399918	15.31399918	-15.60395908	-4.567574501	-11.33389473	1.0
[RightHandThumb4]
27	-19.54599953	-11.28499985	11.28499985	0	0	0	1.0
28	-19.54599953	-11.28499985	11.28499985	0	0	0	1.0
29	-19.54599953	-11.28499985	11.28499985	0	0	0	1.0
[LeftUpLeg]
27	82.07800293	-67.51699829	-15.99599934	8.899674416	16.33963203	6.392965794	1.0
28	82.07800293	-67.51699829	-15.99599934	-0.6694755554	14.14372826	4.771421432	1.0
29	82.07800293	-67.51699829	-15.99599934	-9.737557411	12.29978943	3.135992765	1.0
[LeftLeg]
27	0	-443.7049866	2.845999956	44.03814697	-13.76136494	-0.6300177574	1.0
28	0	-443.7049866	2.845999956	59.41007614	-10.72644806	-1.497370601	1.0
29	0	-443.7049866	2.845999956	68.71898651	-7.266346455	-1.474671364	1.0
[LeftFoot]
27	0	-444.2789917	-29.8219986	12.06240368	-2.525624514	-4.03682518	1.0
28	0	-444.2789917	-29.8219986	13.2589426	0.1441700757	-5.191514015	1.0
29	0	-444.2789917	-29.8219986	9.33105278	0.5350008607	-4.415524006	1.0
[LeftToeBase]
27	0	-87.28699493	107.1060028	-18.12622452	-5.646467116e-07	2.849280463e-06	1.0
28	0	-87.28699493	107.1060028	-11.00687885	-1.350236062e-06	1.445819606e-07	1.0
29	0	-87.28699493	107.1060028	-9.022727966	-1.974849084e-07	-5.5106525e-06	1.0
[RightUpLeg]
27	-82.07800293	-67.51699829	-15.99599934	-37.95766449	-8.040228844	0.8552852273	1.0
28	-82.07800293	-67.51699829	-15.99599934	-35.65811157	-8.183218956	1.219480515	1.0
29	-82.07800293	-67.51699829	-15.99599934	-32.21479797	-7.724946976	1.716885209	1.0
[RightLeg]
27	0	-443.7049866	2.861999989	36.03082275	0.5324104428	2.169193506	1.0
28	0	-443.7049866	2.861999989	37.94746399	0.7521270514	3.041703224	1.0
29	0	-443.7049866	2.861999989	37.17163086	1.194219589	2.711218596	1.0
[RightFoot]
27	0	-444.2770081	-29.83799934	-0.8738265634	-0.06949421018	-2.962899685	1.0
28	0	-444.2770081	-29.83799934	-4.905770302	-0.2648178935	-3.792310953	1.0
29	0	-444.2770081	-29.83799934	-7.941318512	-0.3651466668	-3.635837555	1.0
[RightToeBase]
27	0	-87.28699493	107.1060028	-6.411642075	1.877260836e-08	4.884745408e-07	1.0
28	0	-87.28699493	107.1060028	-6.148217201	-4.53268342e-07	-4.018448863e-08	1.0
29	0	-87.28699493	107.1060028	-6.122186661	-4.723981419e-07	1.286438049e-07	1.0
[EndOfFile]
